<svg width="40" height="42" viewBox="0 0 40 42" fill="none" xmlns="http://www.w3.org/2000/svg">
<mask id="path-1-inside-1" fill="white">
<path d="M3.61301 6.84845L0 7.75464L1.0696 12.0192L1.337 13.0853C1.337 13.0853 3.03489 13.0844 3.48233 14.8684C3.92977 16.6523 2.46586 17.5861 2.46586 17.5861L2.94445 19.4942C2.94445 19.4942 4.70456 19.7481 5.15738 21.5468C5.61021 23.3455 4.1751 24.4009 4.1751 24.4009L4.55113 25.9001C4.55113 25.9001 6.34397 26.2778 6.72988 27.8164C7.21303 29.7427 5.78178 30.8067 5.78178 30.8067L6.08944 32.0334C6.08944 32.0334 7.93705 32.6227 8.31764 34.1401C8.69823 35.6576 7.28667 36.8068 7.28667 36.8068L7.42037 37.3398L7.65434 38.2727L8.42312 41.3378L11.1551 40.6526L12.1546 40.4019L12.2212 40.3852C12.2212 40.3852 12.2203 38.6873 14.0043 38.2399C15.7882 37.7925 16.722 39.2564 16.722 39.2564L18.6301 38.7778C18.6301 38.7778 18.884 37.0177 20.6828 36.5648C22.4815 36.112 23.2702 37.614 23.2702 37.614L25.3026 37.1043C25.3026 37.1043 25.6803 35.3114 27.2189 34.9255C29.1452 34.4424 29.9427 35.9405 29.9427 35.9405L31.4359 35.5659C31.4359 35.5659 31.7586 33.7852 33.2761 33.4046C34.7935 33.024 35.9427 34.4356 35.9427 34.4356L37.4086 34.0679L39.341 33.5832L38.6391 30.7846L38.2695 29.3113C38.2695 29.3113 36.4817 28.9604 36.0992 27.4353C35.7167 25.9102 37.0662 24.5137 37.0662 24.5137L36.757 23.2808C36.757 23.2808 34.9922 23.0148 34.5066 21.0787C34.1187 19.5323 35.5201 18.3492 35.5201 18.3492L35.1422 16.8424C35.1422 16.8424 33.378 16.5859 32.9261 14.7773C32.4742 12.9687 33.9053 11.9108 33.9053 11.9108L33.4242 9.99299C33.4242 9.99299 31.6923 9.85792 31.2425 8.06491C30.7928 6.2719 32.2897 5.46937 32.2897 5.46937L32.1546 4.93089L32.0209 4.39782L30.9179 2.15514e-05L27.1722 0.939488C27.1722 0.939488 27.0404 2.81887 25.3323 3.2473C23.6241 3.67574 22.8863 2.01444 22.8863 2.01444L21.1485 2.4503C21.1485 2.4503 21.0109 4.33117 19.2263 4.77877C17.5459 5.20022 16.5961 3.5921 16.5961 3.5921L14.5906 4.09511C14.5906 4.09511 14.8285 5.88179 12.8834 6.36965C10.9383 6.85751 10.0382 5.23691 10.0382 5.23691L8.16421 5.70694C8.16421 5.70694 7.94837 7.60742 6.32429 8.01476C4.70021 8.4221 3.61301 6.84845 3.61301 6.84845Z"/>
</mask>
<path d="M3.61301 6.84845L0 7.75464L1.0696 12.0192L1.337 13.0853C1.337 13.0853 3.03489 13.0844 3.48233 14.8684C3.92977 16.6523 2.46586 17.5861 2.46586 17.5861L2.94445 19.4942C2.94445 19.4942 4.70456 19.7481 5.15738 21.5468C5.61021 23.3455 4.1751 24.4009 4.1751 24.4009L4.55113 25.9001C4.55113 25.9001 6.34397 26.2778 6.72988 27.8164C7.21303 29.7427 5.78178 30.8067 5.78178 30.8067L6.08944 32.0334C6.08944 32.0334 7.93705 32.6227 8.31764 34.1401C8.69823 35.6576 7.28667 36.8068 7.28667 36.8068L7.42037 37.3398L7.65434 38.2727L8.42312 41.3378L11.1551 40.6526L12.1546 40.4019L12.2212 40.3852C12.2212 40.3852 12.2203 38.6873 14.0043 38.2399C15.7882 37.7925 16.722 39.2564 16.722 39.2564L18.6301 38.7778C18.6301 38.7778 18.884 37.0177 20.6828 36.5648C22.4815 36.112 23.2702 37.614 23.2702 37.614L25.3026 37.1043C25.3026 37.1043 25.6803 35.3114 27.2189 34.9255C29.1452 34.4424 29.9427 35.9405 29.9427 35.9405L31.4359 35.5659C31.4359 35.5659 31.7586 33.7852 33.2761 33.4046C34.7935 33.024 35.9427 34.4356 35.9427 34.4356L37.4086 34.0679L39.341 33.5832L38.6391 30.7846L38.2695 29.3113C38.2695 29.3113 36.4817 28.9604 36.0992 27.4353C35.7167 25.9102 37.0662 24.5137 37.0662 24.5137L36.757 23.2808C36.757 23.2808 34.9922 23.0148 34.5066 21.0787C34.1187 19.5323 35.5201 18.3492 35.5201 18.3492L35.1422 16.8424C35.1422 16.8424 33.378 16.5859 32.9261 14.7773C32.4742 12.9687 33.9053 11.9108 33.9053 11.9108L33.4242 9.99299C33.4242 9.99299 31.6923 9.85792 31.2425 8.06491C30.7928 6.2719 32.2897 5.46937 32.2897 5.46937L32.1546 4.93089L32.0209 4.39782L30.9179 2.15514e-05L27.1722 0.939488C27.1722 0.939488 27.0404 2.81887 25.3323 3.2473C23.6241 3.67574 22.8863 2.01444 22.8863 2.01444L21.1485 2.4503C21.1485 2.4503 21.0109 4.33117 19.2263 4.77877C17.5459 5.20022 16.5961 3.5921 16.5961 3.5921L14.5906 4.09511C14.5906 4.09511 14.8285 5.88179 12.8834 6.36965C10.9383 6.85751 10.0382 5.23691 10.0382 5.23691L8.16421 5.70694C8.16421 5.70694 7.94837 7.60742 6.32429 8.01476C4.70021 8.4221 3.61301 6.84845 3.61301 6.84845Z" fill="#FFFEEA"/>
<path d="M35.7846 33.8051L35.3181 33.9221L35.6344 35.183L36.1008 35.066L35.7846 33.8051ZM37.6075 29.3435L37.639 29.4694L38.9 29.1531L38.8684 29.0273L37.6075 29.3435ZM0 7.75464L-0.316262 6.4937L-1.57721 6.80996L-1.26094 8.0709L0 7.75464ZM3.61301 6.84845L4.68257 6.10951L4.17052 5.36835L3.29675 5.5875L3.61301 6.84845ZM10.0382 5.23691L11.1747 4.60573L10.6901 3.73315L9.72198 3.97597L10.0382 5.23691ZM14.5906 4.09511L14.2744 2.83417L13.1489 3.11646L13.302 4.26666L14.5906 4.09511ZM21.1485 2.4503L20.8323 1.18936L19.9206 1.41801L19.852 2.3554L21.1485 2.4503ZM27.1722 0.939488L26.8559 -0.321455L25.9413 -0.0920566L25.8754 0.848582L27.1722 0.939488ZM30.9179 2.15514e-05L32.1788 -0.31624L31.8626 -1.57718L30.6016 -1.26092L30.9179 2.15514e-05ZM8.16421 5.70694L7.84795 4.446L6.97418 4.66516L6.87252 5.56024L8.16421 5.70694ZM16.5961 3.5921L17.7155 2.93099L17.2217 2.09494L16.2799 2.33116L16.5961 3.5921ZM22.8863 2.01444L24.0744 1.48682L23.6307 0.487485L22.5701 0.753496L22.8863 2.01444ZM8.42312 41.3378L7.16218 41.6541L7.47844 42.915L8.73938 42.5988L8.42312 41.3378ZM39.341 33.5832L39.6572 34.8442L40.9182 34.5279L40.6019 33.267L39.341 33.5832ZM35.9427 34.4356L34.9345 35.2563L35.4567 35.8977L36.2589 35.6965L35.9427 34.4356ZM38.2695 29.3113L39.5305 28.995L39.3297 28.1945L38.5198 28.0356L38.2695 29.3113ZM38.6391 30.7846L37.3781 31.1009L38.6391 30.7846ZM2.94445 19.4942L1.6835 19.8105L1.89566 20.6564L2.75883 20.7809L2.94445 19.4942ZM5.15738 21.5468L3.89672 21.8642L5.15738 21.5468ZM4.1751 24.4009L3.40495 23.3535L2.70183 23.8706L2.91415 24.7171L4.1751 24.4009ZM6.72988 27.8164L5.46894 28.1327L6.72988 27.8164ZM5.78178 30.8067L5.00618 29.7635L4.30971 30.2812L4.52084 31.123L5.78178 30.8067ZM3.48233 14.8684L2.22139 15.1846L3.48233 14.8684ZM2.46586 17.5861L1.76675 16.4901L0.977039 16.9938L1.20492 17.9023L2.46586 17.5861ZM4.55113 25.9001L3.29018 26.2164L3.4879 27.0047L4.28314 27.1722L4.55113 25.9001ZM6.08944 32.0334L4.8285 32.3497L5.00463 33.0519L5.6944 33.2719L6.08944 32.0334ZM8.31764 34.1401L7.0567 34.4564L8.31764 34.1401ZM7.28667 36.8068L6.4659 35.7986L5.82452 36.3208L6.02572 37.123L7.28667 36.8068ZM1.337 13.0853L0.0760596 13.4016L0.32293 14.3858L1.33769 14.3853L1.337 13.0853ZM33.9053 11.9108L34.678 12.9562L35.378 12.4388L35.1662 11.5946L33.9053 11.9108ZM32.9261 14.7773L34.1873 14.4621L34.1873 14.4621L32.9261 14.7773ZM35.1422 16.8424L36.4031 16.5261L36.1912 15.6812L35.3292 15.5559L35.1422 16.8424ZM36.757 23.2808L38.0179 22.9645L37.8072 22.1244L36.9507 21.9953L36.757 23.2808ZM33.4242 9.99299L34.6852 9.67673L34.4577 8.76964L33.5253 8.69693L33.4242 9.99299ZM35.5201 18.3492L36.3587 19.3426L36.9783 18.8195L36.781 18.033L35.5201 18.3492ZM37.0662 24.5137L38.0011 25.417L38.5028 24.8978L38.3272 24.1974L37.0662 24.5137ZM32.2897 5.46937L32.9039 6.61508L33.7972 6.13617L33.5506 5.15311L32.2897 5.46937ZM18.6301 38.7778L18.9464 40.0387L19.7923 39.8266L19.9168 38.9634L18.6301 38.7778ZM20.6828 36.5648L21.0001 37.8255L20.6828 36.5648ZM23.2702 37.614L22.1193 38.2184L22.5947 39.1237L23.5865 38.8749L23.2702 37.614ZM29.9427 35.9405L28.7951 36.5513L29.2728 37.4487L30.2589 37.2014L29.9427 35.9405ZM16.722 39.2564L15.626 39.9555L16.1297 40.7452L17.0383 40.5173L16.722 39.2564ZM25.3026 37.1043L25.6188 38.3652L26.4071 38.1675L26.5746 37.3722L25.3026 37.1043ZM31.4359 35.5659L31.7521 36.8269L32.5655 36.6229L32.715 35.7978L31.4359 35.5659ZM12.2212 40.3852L12.5375 41.6462L13.5218 41.3993L13.5212 40.3845L12.2212 40.3852ZM0.316262 9.01558L3.92927 8.10939L3.29675 5.5875L-0.316262 6.4937L0.316262 9.01558ZM10.0382 5.23691C8.90175 5.86809 8.90207 5.86868 8.9024 5.86927C8.90252 5.86948 8.90285 5.87008 8.90308 5.87049C8.90355 5.87132 8.90402 5.87217 8.90452 5.87305C8.9055 5.87481 8.90655 5.87668 8.90767 5.87865C8.9099 5.88259 8.91239 5.88695 8.91514 5.89171C8.92064 5.90122 8.92718 5.91236 8.93478 5.925C8.94996 5.95025 8.96945 5.98161 8.99332 6.01805C9.04091 6.09068 9.10682 6.18484 9.19181 6.2917C9.35993 6.50308 9.61369 6.77804 9.96138 7.03364C10.6863 7.56656 11.7893 7.98433 13.1996 7.63059L12.5671 5.10871C12.0324 5.24283 11.7128 5.09423 11.5014 4.93882C11.381 4.85026 11.2881 4.75055 11.2267 4.67331C11.1969 4.63587 11.1773 4.60723 11.1681 4.59314C11.1636 4.58622 11.1618 4.58324 11.1629 4.58499C11.1634 4.58587 11.1646 4.58797 11.1666 4.59139C11.1676 4.5931 11.1688 4.59514 11.1701 4.59752C11.1708 4.59872 11.1715 4.59999 11.1723 4.60136C11.1727 4.60205 11.1731 4.60275 11.1735 4.60348C11.1737 4.60384 11.174 4.60441 11.1741 4.60459C11.1744 4.60516 11.1747 4.60573 10.0382 5.23691ZM13.1996 7.63059C14.6284 7.27224 15.3715 6.36898 15.6889 5.49173C15.8362 5.08464 15.8836 4.71081 15.896 4.44192C15.9023 4.30543 15.8999 4.18981 15.8951 4.10235C15.8928 4.05843 15.8898 4.02107 15.8869 3.99112C15.8854 3.97612 15.884 3.96294 15.8827 3.95166C15.8821 3.94602 15.8815 3.94085 15.8809 3.93616C15.8806 3.93382 15.8803 3.9316 15.88 3.9295C15.8799 3.92845 15.8798 3.92743 15.8796 3.92644C15.8796 3.92595 15.8795 3.92523 15.8794 3.92498C15.8794 3.92427 15.8793 3.92356 14.5906 4.09511C13.302 4.26666 13.3019 4.26597 13.3018 4.26529C13.3018 4.26507 13.3017 4.26439 13.3016 4.26395C13.3015 4.26307 13.3014 4.26221 13.3013 4.26138C13.3011 4.25971 13.3009 4.25814 13.3007 4.25666C13.3003 4.25369 13.3 4.25109 13.2998 4.24885C13.2993 4.24436 13.2989 4.24126 13.2988 4.23948C13.2984 4.23594 13.2986 4.23744 13.299 4.24333C13.2996 4.25548 13.3006 4.28325 13.2988 4.32189C13.295 4.40325 13.2804 4.50657 13.244 4.60714C13.194 4.74519 13.0835 4.9792 12.5671 5.10871L13.1996 7.63059ZM3.61301 6.84845C2.54344 7.58739 2.54374 7.58782 2.54405 7.58826C2.54416 7.58842 2.54447 7.58887 2.54468 7.58918C2.54511 7.5898 2.54556 7.59045 2.54603 7.59112C2.54697 7.59246 2.54797 7.59391 2.54906 7.59545C2.55122 7.59854 2.55368 7.60203 2.55642 7.60589C2.56192 7.61363 2.56859 7.62291 2.57642 7.63361C2.59206 7.65499 2.61241 7.68217 2.63735 7.71417C2.68707 7.778 2.75588 7.86214 2.84284 7.95858C3.01455 8.14899 3.2688 8.40043 3.5991 8.63868C4.25544 9.11212 5.32565 9.6055 6.64055 9.2757L6.00803 6.75381C5.69885 6.83136 5.41342 6.74158 5.12014 6.53003C4.97563 6.42579 4.85657 6.30927 4.77368 6.21736C4.73334 6.17262 4.70452 6.137 4.68845 6.11637C4.68048 6.10614 4.67589 6.09991 4.67481 6.09844C4.67428 6.09771 4.67465 6.0982 4.67593 6.1C4.67657 6.10091 4.67744 6.10214 4.67855 6.10372C4.6791 6.10451 4.67971 6.10539 4.68038 6.10635C4.68072 6.10683 4.68107 6.10734 4.68143 6.10786C4.68162 6.10812 4.6819 6.10854 4.68199 6.10867C4.68228 6.10908 4.68257 6.10951 3.61301 6.84845ZM19.5425 6.03971C20.9036 5.69833 21.6482 4.78673 22.0243 4.01811C22.2087 3.64141 22.311 3.29031 22.3681 3.03353C22.397 2.9036 22.4153 2.79343 22.4268 2.71048C22.4326 2.66888 22.4367 2.63376 22.4396 2.606C22.441 2.59211 22.4422 2.58003 22.4431 2.56987C22.4435 2.56479 22.4439 2.56019 22.4442 2.55607C22.4444 2.55401 22.4445 2.55208 22.4447 2.55026C22.4448 2.54936 22.4448 2.54848 22.4449 2.54764C22.4449 2.54722 22.445 2.54661 22.445 2.5464C22.445 2.54579 22.4451 2.5452 21.1485 2.4503C19.852 2.3554 19.852 2.35482 19.8521 2.35425C19.8521 2.35407 19.8521 2.3535 19.8522 2.35314C19.8522 2.35241 19.8523 2.3517 19.8523 2.35102C19.8524 2.34967 19.8525 2.34841 19.8526 2.34726C19.8528 2.34496 19.853 2.34306 19.8531 2.34155C19.8534 2.33853 19.8535 2.33707 19.8535 2.33706C19.8535 2.33706 19.8534 2.3385 19.853 2.34128C19.8527 2.34406 19.8522 2.34817 19.8514 2.35351C19.8484 2.37517 19.8421 2.41544 19.8302 2.46883C19.8057 2.5787 19.7621 2.72579 19.689 2.87526C19.5501 3.15897 19.3335 3.4116 18.91 3.51782L19.5425 6.03971ZM25.6485 4.50825C26.9921 4.17127 27.7124 3.24378 28.0689 2.48655C28.2449 2.11289 28.3421 1.76484 28.3963 1.51124C28.4237 1.38279 28.441 1.27399 28.4519 1.19229C28.4573 1.15131 28.4612 1.11678 28.4639 1.08959C28.4652 1.07598 28.4663 1.06418 28.4671 1.05429C28.4676 1.04934 28.4679 1.04487 28.4682 1.04088C28.4684 1.03889 28.4685 1.03702 28.4687 1.03527C28.4687 1.03439 28.4688 1.03355 28.4688 1.03274C28.4689 1.03233 28.4689 1.03175 28.4689 1.03154C28.469 1.03097 28.469 1.03039 27.1722 0.939488C25.8754 0.848582 25.8754 0.848026 25.8754 0.847477C25.8755 0.847303 25.8755 0.846759 25.8755 0.84641C25.8756 0.845712 25.8756 0.84504 25.8757 0.844394C25.8758 0.843102 25.8759 0.841912 25.8759 0.840824C25.8761 0.838649 25.8763 0.836878 25.8764 0.835499C25.8766 0.832744 25.8767 0.831544 25.8767 0.831807C25.8766 0.832356 25.876 0.83862 25.8745 0.849869C25.8715 0.872621 25.8652 0.913993 25.8536 0.968436C25.8296 1.08061 25.7872 1.22918 25.7167 1.37891C25.5803 1.66848 25.3807 1.8949 25.016 1.98636L25.6485 4.50825ZM27.4884 2.20043L31.2341 1.26097L30.6016 -1.26092L26.8559 -0.321455L27.4884 2.20043ZM6.64055 9.2757C7.95545 8.94591 8.66614 8.00586 9.02136 7.27871C9.20012 6.91278 9.30561 6.57111 9.36713 6.3222C9.39829 6.19613 9.41924 6.08948 9.43296 6.00974C9.43983 5.96976 9.44495 5.93619 9.44865 5.90996C9.4505 5.89683 9.452 5.8855 9.4532 5.87609C9.45379 5.87138 9.45432 5.86715 9.45477 5.86341C9.45499 5.86153 9.4552 5.85978 9.45539 5.85816C9.45548 5.85734 9.45557 5.85656 9.45566 5.85581C9.4557 5.85543 9.45577 5.85489 9.45579 5.85471C9.45585 5.85417 9.45591 5.85365 8.16421 5.70694C6.87252 5.56024 6.87257 5.55973 6.87263 5.55923C6.87265 5.55907 6.87271 5.55857 6.87274 5.55825C6.87282 5.55762 6.87289 5.55701 6.87296 5.55642C6.87309 5.55526 6.87322 5.5542 6.87333 5.55324C6.87356 5.55133 6.87375 5.54983 6.87389 5.54873C6.87417 5.54653 6.87426 5.54592 6.87413 5.54682C6.87388 5.54862 6.87277 5.55628 6.87058 5.56906C6.86614 5.59484 6.85754 5.63985 6.84309 5.69832C6.81339 5.81848 6.76341 5.97738 6.6852 6.13749C6.52648 6.46241 6.31721 6.67627 6.00803 6.75381L6.64055 9.2757ZM8.48047 6.96789L10.3545 6.49786L9.72198 3.97597L7.84795 4.446L8.48047 6.96789ZM14.9069 5.35606L16.9124 4.85305L16.2799 2.33116L14.2744 2.83417L14.9069 5.35606ZM16.5961 3.5921C15.4768 4.25321 15.4771 4.25371 15.4774 4.25421C15.4775 4.25438 15.4778 4.25489 15.478 4.25524C15.4784 4.25594 15.4788 4.25666 15.4793 4.25742C15.4802 4.25892 15.4812 4.26053 15.4822 4.26225C15.4842 4.26567 15.4866 4.2695 15.4891 4.27373C15.4943 4.28219 15.5005 4.29224 15.5078 4.30377C15.5223 4.3268 15.5411 4.35583 15.5642 4.38987C15.6102 4.45774 15.674 4.5468 15.7555 4.64871C15.9163 4.84971 16.1579 5.11584 16.4811 5.36819C17.138 5.88105 18.1994 6.37659 19.5425 6.03971L18.91 3.51782C18.5728 3.60239 18.3191 3.5046 18.0811 3.31876C17.9568 3.22177 17.8559 3.11221 17.7861 3.02486C17.7523 2.98259 17.7288 2.94932 17.7163 2.93088C17.7101 2.92178 17.7069 2.91667 17.7067 2.91635C17.7066 2.9162 17.7072 2.91727 17.7087 2.91967C17.7094 2.92087 17.7104 2.9224 17.7115 2.92429C17.7121 2.92523 17.7127 2.92626 17.7133 2.92737C17.7137 2.92793 17.714 2.92851 17.7144 2.92911C17.7146 2.92942 17.7148 2.92989 17.7149 2.93004C17.7152 2.93051 17.7155 2.93099 16.5961 3.5921ZM21.4648 3.71124L23.2026 3.27538L22.5701 0.753496L20.8323 1.18936L21.4648 3.71124ZM22.8863 2.01444C21.6982 2.54206 21.6985 2.54262 21.6987 2.54319C21.6988 2.54338 21.6991 2.54396 21.6992 2.54436C21.6996 2.54515 21.7 2.54597 21.7003 2.54682C21.7011 2.54852 21.7019 2.55032 21.7028 2.55223C21.7045 2.55606 21.7065 2.56032 21.7086 2.56499C21.7129 2.57433 21.7181 2.58535 21.7242 2.59792C21.7363 2.62304 21.752 2.65451 21.7714 2.69129C21.81 2.76455 21.8642 2.86057 21.9349 2.97049C22.0739 3.18664 22.2896 3.4765 22.5943 3.75347C23.2326 4.33377 24.2758 4.85254 25.6485 4.50825L25.016 1.98636C24.6805 2.0705 24.5008 1.97284 24.3432 1.8296C24.2499 1.7448 24.1744 1.64611 24.1217 1.56416C24.0965 1.52502 24.0797 1.4946 24.0713 1.47869C24.0672 1.47088 24.0654 1.46707 24.0659 1.46806C24.0661 1.46857 24.0669 1.47031 24.0684 1.47339C24.0691 1.47494 24.0699 1.47682 24.071 1.47905C24.0715 1.48017 24.072 1.48137 24.0726 1.48266C24.0729 1.48331 24.0732 1.48398 24.0735 1.48467C24.0736 1.48502 24.0739 1.48556 24.074 1.48573C24.0742 1.48627 24.0744 1.48682 22.8863 2.01444ZM11.8383 39.141L10.8388 39.3917L11.4713 41.9136L12.4708 41.6629L11.8383 39.141ZM10.8388 39.3917L8.10686 40.0769L8.73938 42.5988L11.4713 41.9136L10.8388 39.3917ZM39.0247 32.3223L37.0924 32.8069L37.7249 35.3288L39.6572 34.8442L39.0247 32.3223ZM37.0924 32.8069L35.6264 33.1746L36.2589 35.6965L37.7249 35.3288L37.0924 32.8069ZM2.33055 11.7029L1.26094 7.43838L-1.26094 8.0709L-0.191341 12.3354L2.33055 11.7029ZM9.68406 41.0216L8.91529 37.9564L6.3934 38.589L7.16218 41.6541L9.68406 41.0216ZM8.91529 37.9564L8.68131 37.0236L6.15942 37.6561L6.3934 38.589L8.91529 37.9564ZM29.6569 0.316283L30.76 4.71408L33.2818 4.08156L32.1788 -0.31624L29.6569 0.316283ZM30.76 4.71408L30.8937 5.24715L33.4155 4.61463L33.2818 4.08156L30.76 4.71408ZM37.0086 29.6275L37.3781 31.1009L39.9 30.4684L39.5305 28.995L37.0086 29.6275ZM37.3781 31.1009L38.08 33.8995L40.6019 33.267L39.9 30.4684L37.3781 31.1009ZM2.94445 19.4942C2.75883 20.7809 2.75823 20.7808 2.75764 20.7807C2.75745 20.7807 2.75686 20.7806 2.75648 20.7806C2.75572 20.7805 2.75498 20.7803 2.75427 20.7802C2.75285 20.78 2.75152 20.7798 2.75029 20.7796C2.74783 20.7793 2.74574 20.7789 2.74402 20.7787C2.74059 20.7781 2.7386 20.7778 2.73798 20.7777C2.73677 20.7774 2.74091 20.7782 2.74973 20.78C2.76759 20.7838 2.80306 20.7921 2.85111 20.8066C2.94951 20.8363 3.08618 20.8877 3.22841 20.9703C3.49877 21.1272 3.77539 21.3823 3.89672 21.8642L6.41805 21.2295C6.08654 19.9127 5.2567 19.1414 4.5338 18.7217C4.17939 18.516 3.84773 18.3915 3.60197 18.3174C3.47793 18.28 3.37236 18.2544 3.29219 18.2373C3.252 18.2287 3.21788 18.2222 3.19066 18.2174C3.17704 18.215 3.16512 18.213 3.15499 18.2113C3.14993 18.2105 3.14531 18.2098 3.14115 18.2092C3.13908 18.2089 3.13711 18.2086 3.13526 18.2083C3.13434 18.2082 3.13344 18.208 3.13257 18.2079C3.13214 18.2078 3.13151 18.2078 3.1313 18.2077C3.13068 18.2076 3.13006 18.2075 2.94445 19.4942ZM3.89672 21.8642C4.01768 22.3447 3.89469 22.6989 3.73037 22.9646C3.64389 23.1045 3.54752 23.2144 3.47456 23.2871C3.43894 23.3226 3.41148 23.3467 3.39746 23.3585C3.39053 23.3643 3.38719 23.3669 3.38814 23.3662C3.38862 23.3658 3.3902 23.3646 3.39296 23.3625C3.39434 23.3614 3.39603 23.3602 3.39802 23.3587C3.39902 23.3579 3.40009 23.3571 3.40124 23.3563C3.40182 23.3558 3.40242 23.3554 3.40304 23.355C3.40334 23.3547 3.40382 23.3544 3.40398 23.3543C3.40446 23.3539 3.40495 23.3535 4.1751 24.4009C4.94525 25.4482 4.94575 25.4478 4.94625 25.4474C4.94643 25.4473 4.94694 25.4469 4.94729 25.4467C4.94799 25.4462 4.94872 25.4456 4.94947 25.4451C4.95097 25.4439 4.95257 25.4428 4.95425 25.4415C4.95762 25.439 4.96135 25.4362 4.96544 25.4331C4.9736 25.4269 4.98319 25.4195 4.99407 25.4109C5.01582 25.3939 5.04287 25.372 5.0743 25.3455C5.13699 25.2926 5.21811 25.2202 5.30996 25.1286C5.49193 24.9473 5.72603 24.6809 5.94173 24.3321C6.38176 23.6205 6.74991 22.5477 6.41805 21.2295L3.89672 21.8642ZM5.46894 28.1327C5.61262 28.7055 5.47471 29.1052 5.31583 29.376C5.23099 29.5205 5.13683 29.6313 5.06716 29.7028C5.03304 29.7378 5.00707 29.761 4.99452 29.7718C4.98832 29.7771 4.98569 29.7791 4.98734 29.7778C4.98817 29.7772 4.99009 29.7757 4.9932 29.7733C4.99475 29.7721 4.9966 29.7707 4.99876 29.769C4.99984 29.7682 5.001 29.7673 5.00223 29.7664C5.00285 29.7659 5.00349 29.7655 5.00415 29.765C5.00448 29.7647 5.00499 29.7643 5.00515 29.7642C5.00567 29.7638 5.00618 29.7635 5.78178 30.8067C6.55737 31.85 6.5579 31.8496 6.55844 31.8492C6.55863 31.8491 6.55917 31.8487 6.55954 31.8484C6.56028 31.8479 6.56105 31.8473 6.56185 31.8467C6.56343 31.8455 6.5651 31.8443 6.56687 31.8429C6.5704 31.8402 6.5743 31.8373 6.57855 31.834C6.58704 31.8275 6.59694 31.8197 6.60813 31.8108C6.63051 31.793 6.65816 31.7703 6.69015 31.7428C6.75398 31.6878 6.83605 31.6129 6.92856 31.518C7.11215 31.3298 7.34561 31.0542 7.55819 30.6919C7.99415 29.9491 8.33029 28.8536 7.99082 27.5002L5.46894 28.1327ZM2.22139 15.1846C2.33701 15.6456 2.21377 15.949 2.06652 16.1657C1.9856 16.2849 1.89484 16.3778 1.82545 16.4393C1.79177 16.4692 1.76616 16.4889 1.75386 16.498C1.74781 16.5025 1.74535 16.5042 1.74719 16.5029C1.74811 16.5023 1.75014 16.5009 1.75337 16.4987C1.75498 16.4977 1.75689 16.4964 1.75912 16.495C1.76023 16.4943 1.76142 16.4935 1.7627 16.4927C1.76333 16.4923 1.76399 16.4918 1.76467 16.4914C1.765 16.4912 1.76553 16.4909 1.76569 16.4907C1.76622 16.4904 1.76675 16.4901 2.46586 17.5861C3.16496 18.6821 3.16551 18.6818 3.16606 18.6814C3.16625 18.6813 3.16681 18.6809 3.16719 18.6807C3.16795 18.6802 3.16874 18.6797 3.16956 18.6792C3.17118 18.6781 3.1729 18.677 3.17472 18.6758C3.17835 18.6735 3.18236 18.6708 3.18672 18.668C3.19546 18.6622 3.20565 18.6553 3.21719 18.6474C3.24026 18.6316 3.26881 18.6115 3.30191 18.5869C3.36792 18.538 3.45319 18.4709 3.54976 18.3853C3.74086 18.216 3.98813 17.964 4.21725 17.6267C4.69009 16.9306 5.07509 15.8751 4.74327 14.5521L2.22139 15.1846ZM1.20492 17.9023L1.6835 19.8105L4.20539 19.178L3.7268 17.2698L1.20492 17.9023ZM2.91415 24.7171L3.29018 26.2164L5.81207 25.5838L5.43604 24.0846L2.91415 24.7171ZM4.55113 25.9001C4.28314 27.1722 4.28266 27.1721 4.28219 27.172C4.28205 27.172 4.28158 27.1719 4.28128 27.1718C4.28069 27.1717 4.28012 27.1715 4.27958 27.1714C4.27849 27.1712 4.2775 27.171 4.27661 27.1708C4.27484 27.1704 4.27345 27.1701 4.27245 27.1699C4.27044 27.1694 4.26995 27.1693 4.27088 27.1695C4.27276 27.17 4.28022 27.1718 4.29257 27.1751C4.31745 27.1817 4.36082 27.1942 4.41721 27.2134C4.53263 27.2528 4.68764 27.3158 4.84557 27.407C5.17412 27.5968 5.39364 27.8325 5.46894 28.1327L7.99082 27.5002C7.68022 26.2618 6.81036 25.5393 6.146 25.1556C5.80749 24.96 5.49017 24.8324 5.25737 24.7529C5.13965 24.7127 5.03994 24.6836 4.96527 24.6636C4.92784 24.6536 4.89641 24.6458 4.87184 24.6399C4.85954 24.637 4.84893 24.6346 4.84012 24.6326C4.83571 24.6316 4.83175 24.6307 4.82825 24.63C4.82649 24.6296 4.82486 24.6293 4.82333 24.6289C4.82257 24.6288 4.82184 24.6286 4.82114 24.6285C4.82079 24.6284 4.82028 24.6283 4.8201 24.6282C4.81961 24.6281 4.81912 24.628 4.55113 25.9001ZM4.52084 31.123L4.8285 32.3497L7.35039 31.7171L7.04272 30.4905L4.52084 31.123ZM6.08944 32.0334C5.6944 33.2719 5.69399 33.2718 5.69359 33.2717C5.69347 33.2716 5.69307 33.2715 5.69282 33.2714C5.69232 33.2713 5.69185 33.2711 5.6914 33.271C5.69051 33.2707 5.68972 33.2704 5.68903 33.2702C5.68766 33.2698 5.6867 33.2694 5.68613 33.2693C5.68501 33.2689 5.68547 33.269 5.68743 33.2697C5.69137 33.2711 5.7012 33.2745 5.71616 33.2801C5.74626 33.2913 5.79608 33.3107 5.85981 33.3388C5.98952 33.396 6.16437 33.4834 6.34361 33.602C6.72827 33.8564 6.97956 34.1489 7.0567 34.4564L9.57858 33.8239C9.27513 32.614 8.41232 31.8531 7.77803 31.4335C7.44779 31.215 7.13695 31.0603 6.90835 30.9596C6.79291 30.9087 6.69542 30.8703 6.62299 30.8433C6.58669 30.8298 6.55645 30.8191 6.53313 30.8111C6.52147 30.8071 6.51151 30.8037 6.50337 30.801C6.4993 30.7997 6.49569 30.7985 6.49253 30.7975C6.49096 30.797 6.4895 30.7965 6.48815 30.7961C6.48748 30.7958 6.48684 30.7956 6.48623 30.7954C6.48592 30.7953 6.48549 30.7952 6.48533 30.7952C6.4849 30.795 6.48448 30.7949 6.08944 32.0334ZM7.0567 34.4564C7.12698 34.7366 7.04968 35.0296 6.84997 35.3416C6.75414 35.4914 6.64744 35.6159 6.56418 35.7025C6.52355 35.7447 6.4912 35.7752 6.47246 35.7922C6.46316 35.8006 6.45747 35.8055 6.45609 35.8067C6.45541 35.8073 6.45582 35.807 6.45742 35.8056C6.45822 35.8049 6.45932 35.804 6.46073 35.8029C6.46143 35.8023 6.46221 35.8017 6.46308 35.8009C6.46351 35.8006 6.46396 35.8002 6.46443 35.7998C6.46466 35.7996 6.46503 35.7993 6.46515 35.7992C6.46552 35.7989 6.4659 35.7986 7.28667 36.8068C8.10743 37.8149 8.10782 37.8146 8.10822 37.8143C8.10836 37.8142 8.10876 37.8138 8.10903 37.8136C8.10959 37.8132 8.11017 37.8127 8.11077 37.8122C8.11197 37.8112 8.11327 37.8101 8.11465 37.809C8.11741 37.8067 8.12053 37.8041 8.12399 37.8012C8.13091 37.7955 8.1392 37.7885 8.14876 37.7803C8.16787 37.7639 8.19214 37.7426 8.2207 37.7167C8.27767 37.6649 8.35262 37.5937 8.43838 37.5045C8.60789 37.3282 8.83029 37.0706 9.03978 36.7433C9.4507 36.1014 9.88889 35.0611 9.57858 33.8239L7.0567 34.4564ZM6.02572 37.123L6.15942 37.6561L8.68131 37.0236L8.54761 36.4905L6.02572 37.123ZM-0.191341 12.3354L0.0760596 13.4016L2.59795 12.769L2.33055 11.7029L-0.191341 12.3354ZM1.337 13.0853C1.33769 14.3853 1.33703 14.3853 1.33638 14.3853C1.33617 14.3853 1.33552 14.3853 1.33509 14.3853C1.33425 14.3853 1.33343 14.3853 1.33263 14.3853C1.33103 14.3853 1.32953 14.3853 1.32811 14.3853C1.32527 14.3853 1.32278 14.3852 1.32064 14.3852C1.31636 14.3851 1.31342 14.385 1.31176 14.385C1.30846 14.3849 1.31008 14.3849 1.316 14.3853C1.32813 14.3862 1.35596 14.3887 1.39486 14.3952C1.47572 14.4088 1.58466 14.4361 1.69499 14.4872C1.87994 14.573 2.10833 14.7339 2.22139 15.1846L4.74327 14.5521C4.40889 13.2189 3.56462 12.4883 2.78877 12.1285C2.41869 11.9569 2.07519 11.8729 1.82372 11.8308C1.69645 11.8096 1.58813 11.7982 1.50566 11.7922C1.46429 11.7892 1.42899 11.7875 1.4006 11.7865C1.38639 11.786 1.37387 11.7857 1.36313 11.7855C1.35776 11.7854 1.35284 11.7854 1.34836 11.7854C1.34613 11.7853 1.344 11.7853 1.34199 11.7853C1.34099 11.7853 1.34001 11.7853 1.33907 11.7853C1.33859 11.7853 1.3379 11.7853 1.33767 11.7853C1.33699 11.7853 1.33631 11.7853 1.337 13.0853ZM33.9053 11.9108C33.1325 10.8654 33.132 10.8658 33.1315 10.8662C33.1313 10.8663 33.1308 10.8667 33.1305 10.8669C33.1298 10.8675 33.129 10.868 33.1283 10.8686C33.1268 10.8697 33.1252 10.8709 33.1235 10.8721C33.1201 10.8747 33.1164 10.8775 33.1123 10.8806C33.1041 10.8869 33.0945 10.8943 33.0837 10.9029C33.0619 10.92 33.0349 10.942 33.0035 10.9686C32.9409 11.0217 32.8599 11.0944 32.7683 11.1863C32.5867 11.3684 32.3533 11.6356 32.1384 11.9855C31.7001 12.6992 31.3351 13.7728 31.6649 15.0924L34.1873 14.4621C34.0651 13.9731 34.1898 13.6135 34.3539 13.3462C34.4404 13.2055 34.5365 13.0952 34.6091 13.0224C34.6446 12.9869 34.6719 12.9628 34.6858 12.951C34.6926 12.9452 34.6959 12.9426 34.6949 12.9434C34.6944 12.9438 34.6928 12.9451 34.69 12.9472C34.6886 12.9483 34.6869 12.9495 34.6849 12.951C34.6839 12.9518 34.6829 12.9526 34.6817 12.9535C34.6811 12.9539 34.6805 12.9543 34.6799 12.9548C34.6796 12.955 34.6791 12.9554 34.679 12.9555C34.6785 12.9559 34.678 12.9562 33.9053 11.9108ZM31.6649 15.0924C31.995 16.4135 32.8244 17.1886 33.5486 17.611C33.9036 17.818 34.2358 17.9434 34.4821 18.0181C34.6064 18.0558 34.7123 18.0816 34.7926 18.0989C34.8329 18.1075 34.8671 18.1141 34.8944 18.1189C34.908 18.1213 34.92 18.1234 34.9301 18.125C34.9352 18.1258 34.9399 18.1265 34.944 18.1272C34.9461 18.1275 34.9481 18.1278 34.9499 18.1281C34.9509 18.1282 34.9518 18.1283 34.9526 18.1285C34.9531 18.1285 34.9537 18.1286 34.9539 18.1287C34.9545 18.1287 34.9551 18.1288 35.1422 16.8424C35.3292 15.5559 35.3298 15.556 35.3304 15.5561C35.3305 15.5561 35.3311 15.5562 35.3315 15.5562C35.3323 15.5563 35.333 15.5564 35.3337 15.5566C35.3352 15.5568 35.3365 15.557 35.3377 15.5572C35.3402 15.5575 35.3423 15.5579 35.344 15.5581C35.3475 15.5587 35.3494 15.5591 35.3501 15.5592C35.3513 15.5594 35.3472 15.5587 35.3383 15.5568C35.3204 15.5529 35.2849 15.5446 35.2368 15.53C35.1382 15.5001 35.0012 15.4483 34.8586 15.3651C34.5878 15.2072 34.3091 14.9497 34.1873 14.4621L31.6649 15.0924ZM33.2456 21.395C33.5858 22.7511 34.3979 23.5614 35.1331 24.0133C35.4916 24.2336 35.8277 24.3675 36.0787 24.4475C36.2051 24.4878 36.313 24.5155 36.3953 24.5339C36.4365 24.5432 36.4717 24.5503 36.4999 24.5555C36.514 24.5581 36.5264 24.5603 36.537 24.5621C36.5423 24.5629 36.5471 24.5637 36.5515 24.5644C36.5537 24.5648 36.5558 24.5651 36.5577 24.5654C36.5587 24.5656 36.5597 24.5657 36.5606 24.5658C36.561 24.5659 36.5617 24.566 36.5619 24.5661C36.5626 24.5662 36.5633 24.5662 36.757 23.2808C36.9507 21.9953 36.9514 21.9954 36.952 21.9955C36.9522 21.9955 36.9528 21.9956 36.9532 21.9957C36.9541 21.9958 36.9548 21.9959 36.9556 21.996C36.9571 21.9963 36.9586 21.9965 36.9599 21.9967C36.9626 21.9971 36.9649 21.9975 36.9669 21.9978C36.9708 21.9985 36.9732 21.9989 36.9742 21.9991C36.9764 21.9995 36.9731 21.999 36.9652 21.9972C36.9491 21.9936 36.9152 21.9853 36.8687 21.9704C36.7735 21.9401 36.6381 21.8864 36.4946 21.7983C36.226 21.6332 35.913 21.3424 35.7675 20.7624L33.2456 21.395ZM29.9816 8.38117C30.3139 9.70624 31.1499 10.4581 31.8958 10.8513C32.2572 11.0418 32.5943 11.1482 32.843 11.2079C32.9687 11.2381 33.0757 11.2573 33.1571 11.2695C33.198 11.2756 33.2327 11.2799 33.2606 11.283C33.2745 11.2846 33.2868 11.2858 33.2972 11.2868C33.3025 11.2873 33.3072 11.2877 33.3116 11.2881C33.3137 11.2883 33.3158 11.2885 33.3177 11.2886C33.3187 11.2887 33.3196 11.2888 33.3205 11.2888C33.321 11.2889 33.3216 11.2889 33.3219 11.289C33.3225 11.289 33.3232 11.2891 33.4242 9.99299C33.5253 8.69693 33.5259 8.69698 33.5266 8.69703C33.5268 8.69704 33.5274 8.69709 33.5278 8.69713C33.5286 8.69719 33.5294 8.69725 33.5301 8.69731C33.5317 8.69744 33.5331 8.69756 33.5344 8.69767C33.5371 8.6979 33.5394 8.69811 33.5413 8.69829C33.5452 8.69866 33.5476 8.69892 33.5488 8.69905C33.551 8.6993 33.5481 8.69902 33.5407 8.69791C33.5257 8.69567 33.4939 8.69031 33.4501 8.67981C33.3601 8.65818 33.2361 8.61873 33.1083 8.55134C32.8758 8.42877 32.6208 8.21659 32.5035 7.74865L29.9816 8.38117ZM32.1633 10.3093L32.6443 12.2271L35.1662 11.5946L34.6852 9.67673L32.1633 10.3093ZM33.8812 17.1586L34.2592 18.6655L36.781 18.033L36.4031 16.5261L33.8812 17.1586ZM35.5201 18.3492C34.6815 17.3559 34.6811 17.3562 34.6807 17.3565C34.6806 17.3566 34.6802 17.357 34.6799 17.3572C34.6794 17.3577 34.6788 17.3582 34.6782 17.3587C34.677 17.3597 34.6757 17.3608 34.6744 17.3619C34.6716 17.3643 34.6685 17.3669 34.6651 17.3699C34.6583 17.3758 34.6501 17.383 34.6406 17.3914C34.6217 17.4082 34.5977 17.43 34.5694 17.4566C34.5131 17.5097 34.4389 17.5827 34.3542 17.6741C34.1866 17.8547 33.9674 18.1179 33.7616 18.4513C33.3576 19.1059 32.9347 20.1551 33.2456 21.395L35.7675 20.7624C35.6906 20.4559 35.7745 20.1404 35.9741 19.8169C36.0703 19.6611 36.1772 19.5319 36.2602 19.4424C36.3008 19.3987 36.3331 19.3672 36.3518 19.3495C36.3611 19.3408 36.3669 19.3356 36.3683 19.3344C36.369 19.3337 36.3686 19.3341 36.367 19.3354C36.3663 19.3361 36.3652 19.3371 36.3638 19.3382C36.3631 19.3388 36.3623 19.3395 36.3615 19.3402C36.3611 19.3406 36.3606 19.341 36.3601 19.3414C36.3599 19.3415 36.3595 19.3419 36.3594 19.342C36.3591 19.3423 36.3587 19.3426 35.5201 18.3492ZM35.496 23.597L35.8053 24.8299L38.3272 24.1974L38.0179 22.9645L35.496 23.597ZM37.0662 24.5137C36.1314 23.6103 36.1311 23.6106 36.1308 23.6109C36.1306 23.611 36.1303 23.6114 36.1301 23.6116C36.1297 23.6121 36.1292 23.6126 36.1287 23.6131C36.1277 23.6141 36.1267 23.6152 36.1255 23.6164C36.1232 23.6188 36.1206 23.6216 36.1176 23.6247C36.1117 23.6309 36.1045 23.6386 36.0962 23.6477C36.0794 23.6658 36.0578 23.6896 36.0322 23.7188C35.9811 23.7769 35.9134 23.8571 35.8357 23.9568C35.6819 24.1543 35.4813 24.4384 35.2937 24.788C34.9331 25.4602 34.5344 26.5401 34.8383 27.7516L37.3602 27.1191C37.2815 26.8054 37.3663 26.4245 37.5848 26.0171C37.6868 25.827 37.7996 25.6666 37.8869 25.5545C37.9298 25.4995 37.9645 25.4587 37.9857 25.4345C37.9963 25.4225 38.0033 25.4148 38.0062 25.4117C38.0076 25.4102 38.0079 25.4099 38.0071 25.4107C38.0067 25.4112 38.006 25.4119 38.005 25.4129C38.0045 25.4135 38.0039 25.4141 38.0032 25.4147C38.0029 25.4151 38.0026 25.4154 38.0022 25.4158C38.002 25.416 38.0017 25.4163 38.0016 25.4164C38.0014 25.4167 38.0011 25.417 37.0662 24.5137ZM34.8383 27.7516C35.1489 28.9902 36.0243 29.7035 36.6904 30.0782C37.0297 30.2691 37.3475 30.3922 37.5804 30.4683C37.6982 30.5068 37.798 30.5345 37.8728 30.5534C37.9102 30.5629 37.9417 30.5703 37.9663 30.5758C37.9786 30.5785 37.9893 30.5808 37.9981 30.5826C38.0025 30.5836 38.0065 30.5844 38.01 30.5851C38.0118 30.5855 38.0134 30.5858 38.015 30.5861C38.0157 30.5862 38.0165 30.5864 38.0172 30.5865C38.0175 30.5866 38.018 30.5867 38.0182 30.5867C38.0187 30.5868 38.0192 30.5869 38.2695 29.3113C38.5198 28.0356 38.5203 28.0357 38.5208 28.0358C38.5209 28.0358 38.5214 28.0359 38.5217 28.0359C38.5223 28.0361 38.5229 28.0362 38.5234 28.0363C38.5245 28.0365 38.5255 28.0367 38.5264 28.0369C38.5282 28.0373 38.5296 28.0375 38.5306 28.0378C38.5327 28.0382 38.5332 28.0383 38.5324 28.0381C38.5306 28.0377 38.5233 28.0361 38.5111 28.033C38.4866 28.0268 38.4437 28.0151 38.388 27.9969C38.2737 27.9596 38.1207 27.8997 37.9652 27.8122C37.6418 27.6303 37.432 27.4056 37.3602 27.1191L34.8383 27.7516ZM30.8937 5.24715L31.0287 5.78563L33.5506 5.15311L33.4155 4.61463L30.8937 5.24715ZM32.2897 5.46937C31.6754 4.32365 31.6748 4.32397 31.6742 4.3243C31.674 4.32441 31.6734 4.32474 31.6729 4.32496C31.6721 4.32542 31.6712 4.32588 31.6703 4.32636C31.6686 4.32732 31.6667 4.32834 31.6647 4.32942C31.6608 4.33157 31.6565 4.33396 31.6518 4.33659C31.6424 4.34184 31.6314 4.34804 31.6191 4.35521C31.5945 4.36954 31.5642 4.3878 31.5291 4.41009C31.4591 4.45453 31.3689 4.51588 31.2667 4.59504C31.0648 4.75147 30.8017 4.98852 30.5568 5.31567C30.0432 6.00162 29.6467 7.04603 29.9816 8.38117L32.5035 7.74865C32.3886 7.29078 32.5157 7.03742 32.6381 6.87385C32.7112 6.77624 32.7942 6.7006 32.8589 6.65052C32.89 6.62643 32.9132 6.61107 32.9234 6.60462C32.9283 6.60146 32.9297 6.60073 32.9268 6.60242C32.9253 6.60328 32.9228 6.60476 32.919 6.60686C32.9171 6.60792 32.9149 6.60913 32.9124 6.61049C32.9112 6.61118 32.9098 6.6119 32.9084 6.61267C32.9077 6.61305 32.907 6.61344 32.9062 6.61384C32.9059 6.61405 32.9053 6.61436 32.9051 6.61446C32.9045 6.61477 32.9039 6.61508 32.2897 5.46937ZM18.6301 38.7778C19.9168 38.9634 19.9167 38.964 19.9166 38.9646C19.9166 38.9648 19.9165 38.9654 19.9165 38.9658C19.9164 38.9665 19.9163 38.9672 19.9161 38.968C19.9159 38.9694 19.9157 38.9707 19.9155 38.9719C19.9152 38.9744 19.9148 38.9765 19.9146 38.9782C19.914 38.9816 19.9137 38.9836 19.9136 38.9842C19.9134 38.9855 19.9141 38.9813 19.9159 38.9725C19.9198 38.9546 19.928 38.9192 19.9425 38.8711C19.9722 38.7727 20.0236 38.636 20.1062 38.4938C20.2632 38.2235 20.5182 37.9468 21.0001 37.8255L20.3654 35.3042C19.0486 35.6357 18.2773 36.4655 17.8577 37.1884C17.6519 37.5428 17.5274 37.8745 17.4533 38.1203C17.4159 38.2443 17.3903 38.3499 17.3732 38.43C17.3646 38.4702 17.3581 38.5044 17.3533 38.5316C17.3509 38.5452 17.3489 38.5571 17.3473 38.5672C17.3464 38.5723 17.3457 38.5769 17.3451 38.5811C17.3448 38.5832 17.3445 38.5851 17.3442 38.587C17.3441 38.5879 17.3439 38.5888 17.3438 38.5897C17.3438 38.5901 17.3437 38.5907 17.3436 38.5909C17.3435 38.5916 17.3435 38.5922 18.6301 38.7778ZM21.0001 37.8255C21.4608 37.7095 21.7096 37.8377 21.8673 37.9568C21.9627 38.0289 22.0365 38.1109 22.0854 38.175C22.1089 38.2058 22.1238 38.2287 22.13 38.2387C22.133 38.2435 22.1337 38.2447 22.1319 38.2417C22.1311 38.2402 22.1296 38.2375 22.1275 38.2337C22.1264 38.2318 22.1252 38.2295 22.1239 38.227C22.1232 38.2257 22.1225 38.2244 22.1217 38.223C22.1213 38.2222 22.1209 38.2215 22.1205 38.2208C22.1203 38.2204 22.12 38.2198 22.1199 38.2196C22.1196 38.219 22.1193 38.2184 23.2702 37.614C24.4212 37.0095 24.4209 37.0089 24.4205 37.0083C24.4204 37.0081 24.4201 37.0075 24.4199 37.0071C24.4194 37.0062 24.419 37.0054 24.4185 37.0045C24.4175 37.0027 24.4165 37.0008 24.4155 36.9988C24.4133 36.9948 24.411 36.9904 24.4084 36.9857C24.4032 36.9762 24.397 36.9652 24.3899 36.9528C24.3758 36.9279 24.3577 36.8974 24.3356 36.862C24.2917 36.7915 24.2309 36.7007 24.1523 36.5977C23.9971 36.3943 23.7614 36.1292 23.4347 35.8824C22.7483 35.3638 21.7034 34.9673 20.3654 35.3042L21.0001 37.8255ZM27.5351 36.1864C28.093 36.0465 28.3867 36.1949 28.5479 36.31C28.6466 36.3804 28.7203 36.4596 28.7674 36.5192C28.7901 36.548 28.804 36.5689 28.8091 36.5769C28.8116 36.5808 28.8117 36.5811 28.8094 36.5772C28.8082 36.5752 28.8065 36.5721 28.8041 36.5679C28.8029 36.5657 28.8016 36.5633 28.8001 36.5605C28.7993 36.5592 28.7985 36.5577 28.7977 36.5562C28.7973 36.5554 28.7969 36.5546 28.7964 36.5538C28.7962 36.5534 28.7959 36.5528 28.7958 36.5526C28.7955 36.5519 28.7951 36.5513 29.9427 35.9405C31.0902 35.3296 31.0899 35.3289 31.0895 35.3283C31.0894 35.3281 31.089 35.3274 31.0888 35.327C31.0883 35.3261 31.0878 35.3251 31.0873 35.3242C31.0863 35.3223 31.0852 35.3203 31.0841 35.3182C31.0818 35.314 31.0793 35.3094 31.0765 35.3045C31.071 35.2946 31.0645 35.2831 31.0571 35.2703C31.0422 35.2447 31.0232 35.2133 31.0001 35.1771C30.9541 35.1051 30.8907 35.0128 30.8085 34.9087C30.6458 34.7025 30.3998 34.4374 30.0583 34.1936C29.3393 33.6805 28.2711 33.3213 26.9026 33.6646L27.5351 36.1864ZM14.3205 39.5008C14.7815 39.3852 15.0849 39.5085 15.3016 39.6557C15.4208 39.7366 15.5138 39.8274 15.5752 39.8968C15.6051 39.9305 15.6248 39.9561 15.6339 39.9684C15.6384 39.9744 15.6401 39.9769 15.6388 39.975C15.6382 39.9741 15.6368 39.9721 15.6347 39.9689C15.6336 39.9673 15.6323 39.9653 15.6309 39.9631C15.6302 39.962 15.6294 39.9608 15.6286 39.9595C15.6282 39.9589 15.6278 39.9582 15.6273 39.9576C15.6271 39.9572 15.6268 39.9567 15.6267 39.9565C15.6263 39.956 15.626 39.9555 16.722 39.2564C17.818 38.5573 17.8177 38.5567 17.8173 38.5562C17.8172 38.556 17.8168 38.5554 17.8166 38.555C17.8161 38.5543 17.8156 38.5535 17.8151 38.5527C17.814 38.551 17.8129 38.5493 17.8117 38.5475C17.8094 38.5439 17.8068 38.5399 17.8039 38.5355C17.7981 38.5268 17.7913 38.5166 17.7833 38.505C17.7675 38.482 17.7474 38.4534 17.7228 38.4203C17.6739 38.3543 17.6068 38.269 17.5212 38.1725C17.3519 37.9814 17.0999 37.7341 16.7626 37.505C16.0665 37.0321 15.011 36.6471 13.688 36.979L14.3205 39.5008ZM17.0383 40.5173L18.9464 40.0387L18.3139 37.5168L16.4057 37.9954L17.0383 40.5173ZM23.5865 38.8749L25.6188 38.3652L24.9863 35.8433L22.954 36.353L23.5865 38.8749ZM25.3026 37.1043C26.5746 37.3722 26.5745 37.3727 26.5744 37.3732C26.5744 37.3733 26.5743 37.3738 26.5742 37.3741C26.5741 37.3747 26.574 37.3753 26.5739 37.3758C26.5736 37.3769 26.5734 37.3779 26.5732 37.3788C26.5729 37.3805 26.5725 37.3819 26.5723 37.3829C26.5719 37.3849 26.5717 37.3854 26.572 37.3845C26.5724 37.3826 26.5742 37.3752 26.5775 37.3628C26.5842 37.3379 26.5966 37.2946 26.6159 37.2382C26.6553 37.1228 26.7182 36.9677 26.8094 36.8098C26.9992 36.4813 27.2349 36.2617 27.5351 36.1864L26.9026 33.6646C25.6642 33.9752 24.9418 34.845 24.558 35.5094C24.3625 35.8479 24.2348 36.1652 24.1554 36.398C24.1152 36.5157 24.0861 36.6154 24.0661 36.6901C24.056 36.7275 24.0482 36.759 24.0424 36.7835C24.0395 36.7958 24.037 36.8064 24.035 36.8153C24.0341 36.8197 24.0332 36.8236 24.0324 36.8271C24.032 36.8289 24.0317 36.8305 24.0314 36.832C24.0312 36.8328 24.0311 36.8335 24.0309 36.8342C24.0308 36.8346 24.0307 36.8351 24.0307 36.8353C24.0306 36.8358 24.0305 36.8363 25.3026 37.1043ZM30.2589 37.2014L31.7521 36.8269L31.1196 34.305L29.6264 34.6795L30.2589 37.2014ZM31.4359 35.5659C32.715 35.7978 32.7149 35.7983 32.7148 35.7988C32.7148 35.7989 32.7147 35.7994 32.7147 35.7997C32.7146 35.8003 32.7144 35.8009 32.7143 35.8014C32.7141 35.8025 32.714 35.8036 32.7138 35.8045C32.7134 35.8063 32.7132 35.8077 32.713 35.8088C32.7125 35.8109 32.7124 35.8116 32.7126 35.8108C32.7129 35.8092 32.7144 35.8021 32.7172 35.7902C32.7229 35.7662 32.7338 35.7241 32.7509 35.6691C32.7861 35.5564 32.8429 35.4059 32.9266 35.2533C33.1003 34.9368 33.315 34.7351 33.5923 34.6655L32.9598 32.1436C31.7197 32.4547 31.0143 33.3337 30.6472 34.0026C30.4605 34.3428 30.3418 34.6613 30.2691 34.8944C30.2322 35.0123 30.206 35.1122 30.1881 35.1871C30.1792 35.2246 30.1723 35.2562 30.1671 35.2809C30.1646 35.2933 30.1624 35.3039 30.1607 35.3128C30.1598 35.3173 30.1591 35.3213 30.1584 35.3248C30.1581 35.3266 30.1578 35.3283 30.1575 35.3298C30.1573 35.3306 30.1572 35.3313 30.1571 35.332C30.157 35.3324 30.1569 35.3329 30.1569 35.3331C30.1568 35.3336 30.1567 35.3341 31.4359 35.5659ZM33.5923 34.6655C33.8725 34.5953 34.1656 34.6726 34.4776 34.8723C34.6273 34.9681 34.7518 35.0748 34.8384 35.1581C34.8806 35.1987 34.9111 35.231 34.9281 35.2498C34.9365 35.2591 34.9415 35.2648 34.9426 35.2661C34.9432 35.2668 34.9429 35.2664 34.9415 35.2648C34.9409 35.264 34.9399 35.2629 34.9388 35.2615C34.9382 35.2608 34.9376 35.26 34.9369 35.2592C34.9365 35.2587 34.9361 35.2583 34.9357 35.2578C34.9356 35.2576 34.9353 35.2572 34.9352 35.2571C34.9349 35.2567 34.9345 35.2563 35.9427 34.4356C36.9508 33.6148 36.9505 33.6144 36.9502 33.614C36.9501 33.6139 36.9497 33.6135 36.9495 33.6132C36.9491 33.6126 36.9486 33.6121 36.9481 33.6115C36.9471 33.6103 36.946 33.609 36.9449 33.6076C36.9426 33.6048 36.94 33.6017 36.9372 33.5982C36.9314 33.5913 36.9244 33.583 36.9162 33.5735C36.8998 33.5544 36.8785 33.5301 36.8526 33.5015C36.8008 33.4446 36.7296 33.3696 36.6404 33.2839C36.4641 33.1143 36.2065 32.8919 35.8793 32.6825C35.2373 32.2715 34.197 31.8333 32.9598 32.1436L33.5923 34.6655ZM12.4708 41.6629L12.5375 41.6462L11.905 39.1243L11.8383 39.141L12.4708 41.6629ZM12.2212 40.3852C13.5212 40.3845 13.5212 40.3852 13.5212 40.3859C13.5212 40.3861 13.5212 40.3867 13.5212 40.3871C13.5212 40.388 13.5212 40.3888 13.5212 40.3896C13.5212 40.3912 13.5212 40.3927 13.5212 40.3941C13.5212 40.397 13.5211 40.3994 13.5211 40.4016C13.521 40.4059 13.5209 40.4088 13.5209 40.4105C13.5208 40.4138 13.5208 40.4122 13.5212 40.4062C13.5221 40.3941 13.5246 40.3663 13.5311 40.3274C13.5447 40.2465 13.572 40.1376 13.6231 40.0272C13.7089 39.8423 13.8698 39.6139 14.3205 39.5008L13.688 36.979C12.3548 37.3133 11.6242 38.1576 11.2644 38.9335C11.0928 39.3035 11.0088 39.647 10.9668 39.8985C10.9455 40.0258 10.9342 40.1341 10.9281 40.2166C10.9251 40.2579 10.9234 40.2932 10.9224 40.3216C10.9219 40.3358 10.9216 40.3484 10.9214 40.3591C10.9214 40.3645 10.9213 40.3694 10.9213 40.3739C10.9212 40.3761 10.9212 40.3782 10.9212 40.3802C10.9212 40.3812 10.9212 40.3822 10.9212 40.3832C10.9212 40.3836 10.9212 40.3843 10.9212 40.3846C10.9212 40.3852 10.9212 40.3859 12.2212 40.3852Z" fill="#2D42FF" mask="url(#path-1-inside-1)"/>
<rect x="7.42994" y="11.9195" width="19.8127" height="22.9289" transform="rotate(-14.0801 7.42994 11.9195)" fill="#2D42FF" stroke="#2D42FF" stroke-width="2"/>
<path d="M18.2511 13.8857C14.5729 14.8082 12.3431 18.5405 13.2656 22.2186C14.1882 25.8968 17.9154 28.1349 21.5936 27.2124C25.2784 26.2882 27.5148 22.5543 26.5923 18.8761C25.6698 15.198 21.9359 12.9615 18.2511 13.8857ZM23.8715 16.7255L21.9058 17.2186C21.4837 16.4391 20.9766 15.7164 20.3913 15.077C21.7227 15.1893 22.9561 15.7865 23.8715 16.7255ZM18.5987 15.2434C19.3523 15.9043 20.0077 16.6818 20.5332 17.5628L17.9878 18.2013C18.0353 17.1765 18.2462 16.1817 18.5987 15.2434ZM15.1058 23.1736C14.8922 22.7739 14.7136 22.3442 14.5983 21.8844C14.483 21.4246 14.4377 20.9615 14.4373 20.5083L16.6895 19.9434C16.7465 20.3965 16.8168 20.8463 16.9305 21.2994C17.0441 21.7525 17.1944 22.1823 17.358 22.6087L15.1058 23.1736ZM15.9865 24.3692L17.9521 23.8762C18.3743 24.6556 18.8813 25.3784 19.4666 26.0177C18.1353 25.9054 16.9036 25.3149 15.9865 24.3692ZM16.6151 18.5455L14.6494 19.0386C15.0117 17.772 15.8189 16.6701 16.9397 15.9428C16.7254 16.7827 16.6195 17.6591 16.6151 18.5455ZM21.2593 25.8514C20.5057 25.1905 19.8503 24.4129 19.3248 23.5319L21.8702 22.8935C21.8226 23.9182 21.6118 24.9131 21.2593 25.8514ZM21.8224 21.489L18.704 22.2711C18.5337 21.8464 18.3768 21.4183 18.2631 20.9652C18.1495 20.5121 18.0842 20.0539 18.0355 19.6058L21.1539 18.8236C21.3225 19.2417 21.4812 19.6765 21.5948 20.1296C21.7085 20.5827 21.7721 21.0342 21.8224 21.489ZM22.9182 25.152C23.1325 24.3121 23.2385 23.4356 23.2428 22.5492L25.2085 22.0562C24.8446 23.3161 24.039 24.4247 22.9182 25.152ZM23.1684 21.1514C23.1114 20.6982 23.0411 20.2484 22.9275 19.7953C22.8138 19.3422 22.6635 18.9125 22.4999 18.486L24.7521 17.9212C24.9657 18.3209 25.1443 18.7506 25.2596 19.2104C25.375 19.6701 25.4203 20.1333 25.4206 20.5865L23.1684 21.1514Z" fill="#F2FFFD"/>
</svg>
